<mxfile host="app.diagrams.net" modified="2021-04-19T08:45:40.532Z" agent="5.0 (X11; Linux x86_64) AppleWebKit/537.36 (KHTML, like Gecko) Chrome/87.0.4280.66 Safari/537.36" etag="AVnIAcIgLehG4b0TSNYF" version="14.6.1" type="github">
  <diagram id="wip-xTn4UBqAsNKe8juJ" name="Page-1">
    <mxGraphModel dx="1355" dy="806" grid="1" gridSize="10" guides="1" tooltips="1" connect="1" arrows="1" fold="1" page="1" pageScale="1" pageWidth="827" pageHeight="1169" math="0" shadow="0">
      <root>
        <mxCell id="0" />
        <mxCell id="1" parent="0" />
        <mxCell id="iTxMc0_AphUtP3lTy3lw-44" value="" style="whiteSpace=wrap;html=1;aspect=fixed;" vertex="1" parent="1">
          <mxGeometry x="115" y="130" width="125" height="125" as="geometry" />
        </mxCell>
        <mxCell id="iTxMc0_AphUtP3lTy3lw-41" value="" style="edgeStyle=orthogonalEdgeStyle;rounded=0;orthogonalLoop=1;jettySize=auto;html=1;" edge="1" parent="1" source="iTxMc0_AphUtP3lTy3lw-2" target="iTxMc0_AphUtP3lTy3lw-12">
          <mxGeometry relative="1" as="geometry" />
        </mxCell>
        <mxCell id="iTxMc0_AphUtP3lTy3lw-2" value="classfic&lt;br&gt;f(theta)" style="rounded=1;whiteSpace=wrap;html=1;fillColor=#d5e8d4;strokeColor=#82b366;" vertex="1" parent="1">
          <mxGeometry x="220" y="340" width="50" height="70" as="geometry" />
        </mxCell>
        <mxCell id="iTxMc0_AphUtP3lTy3lw-39" value="" style="edgeStyle=orthogonalEdgeStyle;rounded=0;orthogonalLoop=1;jettySize=auto;html=1;" edge="1" parent="1" source="iTxMc0_AphUtP3lTy3lw-3" target="iTxMc0_AphUtP3lTy3lw-17">
          <mxGeometry relative="1" as="geometry" />
        </mxCell>
        <mxCell id="iTxMc0_AphUtP3lTy3lw-3" value="support" style="ellipse;whiteSpace=wrap;html=1;aspect=fixed;" vertex="1" parent="1">
          <mxGeometry x="20" y="350" width="50" height="50" as="geometry" />
        </mxCell>
        <mxCell id="iTxMc0_AphUtP3lTy3lw-46" value="" style="edgeStyle=orthogonalEdgeStyle;rounded=0;orthogonalLoop=1;jettySize=auto;html=1;" edge="1" parent="1" source="iTxMc0_AphUtP3lTy3lw-4" target="iTxMc0_AphUtP3lTy3lw-32">
          <mxGeometry relative="1" as="geometry" />
        </mxCell>
        <mxCell id="iTxMc0_AphUtP3lTy3lw-4" value="query" style="ellipse;whiteSpace=wrap;html=1;aspect=fixed;" vertex="1" parent="1">
          <mxGeometry x="20" y="202.5" width="50" height="50" as="geometry" />
        </mxCell>
        <mxCell id="iTxMc0_AphUtP3lTy3lw-47" value="" style="edgeStyle=orthogonalEdgeStyle;rounded=0;orthogonalLoop=1;jettySize=auto;html=1;" edge="1" parent="1" source="iTxMc0_AphUtP3lTy3lw-8" target="iTxMc0_AphUtP3lTy3lw-27">
          <mxGeometry relative="1" as="geometry" />
        </mxCell>
        <mxCell id="iTxMc0_AphUtP3lTy3lw-8" value="query&lt;br&gt;aug" style="ellipse;whiteSpace=wrap;html=1;aspect=fixed;" vertex="1" parent="1">
          <mxGeometry x="20" y="132.5" width="50" height="50" as="geometry" />
        </mxCell>
        <mxCell id="iTxMc0_AphUtP3lTy3lw-42" value="" style="edgeStyle=orthogonalEdgeStyle;rounded=0;orthogonalLoop=1;jettySize=auto;html=1;" edge="1" parent="1" source="iTxMc0_AphUtP3lTy3lw-12" target="iTxMc0_AphUtP3lTy3lw-37">
          <mxGeometry relative="1" as="geometry" />
        </mxCell>
        <mxCell id="iTxMc0_AphUtP3lTy3lw-12" value="update weights(theta)" style="rounded=1;whiteSpace=wrap;html=1;fillColor=#fff2cc;strokeColor=#d6b656;" vertex="1" parent="1">
          <mxGeometry x="300" y="347.5" width="140" height="55" as="geometry" />
        </mxCell>
        <mxCell id="iTxMc0_AphUtP3lTy3lw-40" value="" style="edgeStyle=orthogonalEdgeStyle;rounded=0;orthogonalLoop=1;jettySize=auto;html=1;" edge="1" parent="1" source="iTxMc0_AphUtP3lTy3lw-17" target="iTxMc0_AphUtP3lTy3lw-2">
          <mxGeometry relative="1" as="geometry" />
        </mxCell>
        <mxCell id="iTxMc0_AphUtP3lTy3lw-17" value="Encoder" style="shape=trapezoid;perimeter=trapezoidPerimeter;whiteSpace=wrap;html=1;fixedSize=1;direction=south;" vertex="1" parent="1">
          <mxGeometry x="110" y="315" width="70" height="120" as="geometry" />
        </mxCell>
        <mxCell id="iTxMc0_AphUtP3lTy3lw-58" style="edgeStyle=orthogonalEdgeStyle;rounded=0;orthogonalLoop=1;jettySize=auto;html=1;exitX=1;exitY=0.5;exitDx=0;exitDy=0;" edge="1" parent="1" source="iTxMc0_AphUtP3lTy3lw-23">
          <mxGeometry relative="1" as="geometry">
            <mxPoint x="600" y="270" as="targetPoint" />
          </mxGeometry>
        </mxCell>
        <mxCell id="iTxMc0_AphUtP3lTy3lw-23" value="Loss2(b2pre,truth)" style="rounded=1;whiteSpace=wrap;html=1;" vertex="1" parent="1">
          <mxGeometry x="430" y="207.5" width="100" height="40" as="geometry" />
        </mxCell>
        <mxCell id="iTxMc0_AphUtP3lTy3lw-50" value="" style="edgeStyle=orthogonalEdgeStyle;rounded=0;orthogonalLoop=1;jettySize=auto;html=1;" edge="1" parent="1" source="iTxMc0_AphUtP3lTy3lw-24" target="iTxMc0_AphUtP3lTy3lw-36">
          <mxGeometry relative="1" as="geometry" />
        </mxCell>
        <mxCell id="iTxMc0_AphUtP3lTy3lw-24" value="c1pre" style="rhombus;whiteSpace=wrap;html=1;" vertex="1" parent="1">
          <mxGeometry x="270" y="127.5" width="60" height="60" as="geometry" />
        </mxCell>
        <mxCell id="iTxMc0_AphUtP3lTy3lw-51" value="" style="edgeStyle=orthogonalEdgeStyle;rounded=0;orthogonalLoop=1;jettySize=auto;html=1;" edge="1" parent="1" source="iTxMc0_AphUtP3lTy3lw-25" target="iTxMc0_AphUtP3lTy3lw-23">
          <mxGeometry relative="1" as="geometry" />
        </mxCell>
        <mxCell id="iTxMc0_AphUtP3lTy3lw-52" value="" style="edgeStyle=orthogonalEdgeStyle;rounded=0;orthogonalLoop=1;jettySize=auto;html=1;" edge="1" parent="1" source="iTxMc0_AphUtP3lTy3lw-25">
          <mxGeometry relative="1" as="geometry">
            <mxPoint x="400" y="180" as="targetPoint" />
            <Array as="points">
              <mxPoint x="400" y="228" />
            </Array>
          </mxGeometry>
        </mxCell>
        <mxCell id="iTxMc0_AphUtP3lTy3lw-25" value="c2pre" style="rhombus;whiteSpace=wrap;html=1;" vertex="1" parent="1">
          <mxGeometry x="270" y="197.5" width="60" height="60" as="geometry" />
        </mxCell>
        <mxCell id="iTxMc0_AphUtP3lTy3lw-57" style="edgeStyle=orthogonalEdgeStyle;rounded=0;orthogonalLoop=1;jettySize=auto;html=1;exitX=1;exitY=0.5;exitDx=0;exitDy=0;" edge="1" parent="1" source="iTxMc0_AphUtP3lTy3lw-26" target="iTxMc0_AphUtP3lTy3lw-33">
          <mxGeometry relative="1" as="geometry" />
        </mxCell>
        <mxCell id="iTxMc0_AphUtP3lTy3lw-26" value="contrastive loss" style="rounded=1;whiteSpace=wrap;html=1;" vertex="1" parent="1">
          <mxGeometry x="460" y="137.5" width="100" height="40" as="geometry" />
        </mxCell>
        <mxCell id="iTxMc0_AphUtP3lTy3lw-55" style="edgeStyle=orthogonalEdgeStyle;rounded=0;orthogonalLoop=1;jettySize=auto;html=1;exitX=1;exitY=0.5;exitDx=0;exitDy=0;" edge="1" parent="1" source="iTxMc0_AphUtP3lTy3lw-27" target="iTxMc0_AphUtP3lTy3lw-24">
          <mxGeometry relative="1" as="geometry" />
        </mxCell>
        <mxCell id="iTxMc0_AphUtP3lTy3lw-27" value="classfic&lt;br&gt;c1(theta)" style="rounded=1;whiteSpace=wrap;html=1;fillColor=#d5e8d4;strokeColor=#82b366;" vertex="1" parent="1">
          <mxGeometry x="140" y="135" width="70" height="45" as="geometry" />
        </mxCell>
        <mxCell id="iTxMc0_AphUtP3lTy3lw-56" style="edgeStyle=orthogonalEdgeStyle;rounded=0;orthogonalLoop=1;jettySize=auto;html=1;exitX=1;exitY=0.5;exitDx=0;exitDy=0;entryX=0;entryY=0.5;entryDx=0;entryDy=0;" edge="1" parent="1" source="iTxMc0_AphUtP3lTy3lw-32" target="iTxMc0_AphUtP3lTy3lw-25">
          <mxGeometry relative="1" as="geometry" />
        </mxCell>
        <mxCell id="iTxMc0_AphUtP3lTy3lw-32" value="classfic&lt;br&gt;c1(theta)" style="rounded=1;whiteSpace=wrap;html=1;fillColor=#d5e8d4;strokeColor=#82b366;" vertex="1" parent="1">
          <mxGeometry x="140" y="205" width="70" height="45" as="geometry" />
        </mxCell>
        <mxCell id="iTxMc0_AphUtP3lTy3lw-33" value="L= a1*contrastiveloss+a2*Loss2" style="rounded=1;whiteSpace=wrap;html=1;" vertex="1" parent="1">
          <mxGeometry x="510" y="270" width="180" height="40" as="geometry" />
        </mxCell>
        <mxCell id="iTxMc0_AphUtP3lTy3lw-53" value="" style="edgeStyle=orthogonalEdgeStyle;rounded=0;orthogonalLoop=1;jettySize=auto;html=1;" edge="1" parent="1" source="iTxMc0_AphUtP3lTy3lw-36" target="iTxMc0_AphUtP3lTy3lw-26">
          <mxGeometry relative="1" as="geometry" />
        </mxCell>
        <mxCell id="iTxMc0_AphUtP3lTy3lw-36" value="" style="shape=sumEllipse;perimeter=ellipsePerimeter;whiteSpace=wrap;html=1;backgroundOutline=1;" vertex="1" parent="1">
          <mxGeometry x="380" y="137.5" width="40" height="40" as="geometry" />
        </mxCell>
        <mxCell id="iTxMc0_AphUtP3lTy3lw-45" value="" style="edgeStyle=orthogonalEdgeStyle;rounded=0;orthogonalLoop=1;jettySize=auto;html=1;entryX=0.5;entryY=1;entryDx=0;entryDy=0;" edge="1" parent="1" source="iTxMc0_AphUtP3lTy3lw-37" target="iTxMc0_AphUtP3lTy3lw-44">
          <mxGeometry relative="1" as="geometry">
            <Array as="points">
              <mxPoint x="530" y="320" />
              <mxPoint x="178" y="320" />
            </Array>
          </mxGeometry>
        </mxCell>
        <mxCell id="iTxMc0_AphUtP3lTy3lw-37" value="LossSupport" style="rounded=1;whiteSpace=wrap;html=1;" vertex="1" parent="1">
          <mxGeometry x="480" y="355" width="100" height="40" as="geometry" />
        </mxCell>
        <mxCell id="iTxMc0_AphUtP3lTy3lw-59" value="no gradient" style="text;html=1;strokeColor=none;fillColor=none;align=center;verticalAlign=middle;whiteSpace=wrap;rounded=0;" vertex="1" parent="1">
          <mxGeometry x="280" y="100" width="40" height="20" as="geometry" />
        </mxCell>
        <mxCell id="iTxMc0_AphUtP3lTy3lw-64" value="" style="endArrow=classic;html=1;entryX=1;entryY=0.75;entryDx=0;entryDy=0;fillColor=#f8cecc;strokeColor=#b85450;" edge="1" parent="1" target="iTxMc0_AphUtP3lTy3lw-12">
          <mxGeometry width="50" height="50" relative="1" as="geometry">
            <mxPoint x="480" y="390" as="sourcePoint" />
            <mxPoint x="530" y="340" as="targetPoint" />
          </mxGeometry>
        </mxCell>
        <mxCell id="iTxMc0_AphUtP3lTy3lw-66" value="" style="endArrow=classic;html=1;entryX=1;entryY=0.75;entryDx=0;entryDy=0;fillColor=#f8cecc;strokeColor=#b85450;" edge="1" parent="1" target="iTxMc0_AphUtP3lTy3lw-2">
          <mxGeometry width="50" height="50" relative="1" as="geometry">
            <mxPoint x="300" y="393" as="sourcePoint" />
            <mxPoint x="340" y="510" as="targetPoint" />
          </mxGeometry>
        </mxCell>
      </root>
    </mxGraphModel>
  </diagram>
</mxfile>
